<?xml version="1.0" standalone="no"?>
<!DOCTYPE svg PUBLIC "-//W3C//DTD SVG 20010904//EN"
 "http://www.w3.org/TR/2001/REC-SVG-20010904/DTD/svg10.dtd">
<svg version="1.0" xmlns="http://www.w3.org/2000/svg"
 width="263.000000pt" height="265.000000pt" viewBox="0 0 263.000000 265.000000"
 preserveAspectRatio="xMidYMid meet">
<metadata>
Created by potrace 1.16, written by Peter Selinger 2001-2019
</metadata>
<g transform="translate(0.000000,265.000000) scale(0.100000,-0.100000)"
fill="#000000" stroke="none">
<path d="M0 1325 l0 -1325 1315 0 1315 0 0 1325 0 1325 -1315 0 -1315 0 0
-1325z m1515 979 c163 -21 241 -38 370 -80 103 -34 295 -117 295 -128 0 -2
-30 9 -67 26 -294 133 -530 182 -873 182 -286 0 -435 -29 -662 -129 -54 -24
-98 -41 -98 -39 0 2 30 19 68 38 125 63 275 108 452 135 95 15 387 12 515 -5z
m48 -583 c-35 -17 -63 -45 -63 -65 0 -15 23 -3 60 30 41 37 47 35 30 -10 -12
-31 3 -35 35 -8 11 9 8 4 -8 -11 -30 -30 -47 -28 -47 5 l0 21 -23 -21 c-25
-23 -52 -28 -62 -12 -4 6 -16 3 -31 -9 -20 -16 -31 -18 -51 -10 -15 5 -32 8
-40 5 -7 -3 -13 1 -13 9 0 12 -6 11 -31 -4 -25 -15 -38 -17 -57 -10 -14 5 -31
8 -39 5 -7 -3 -13 -1 -13 5 0 5 8 12 18 16 21 7 62 43 62 55 0 20 -41 5 -67
-26 -15 -18 -38 -39 -51 -45 -20 -10 -23 -9 -31 10 -8 23 15 79 32 79 10 0 9
-2 -8 -44 -21 -50 -1 -48 50 4 35 35 44 40 82 38 24 -1 40 -4 36 -8 -4 -3 -25
-19 -46 -34 -39 -29 -41 -46 -4 -46 26 0 58 25 82 63 15 24 23 27 69 26 43 0
48 -2 32 -12 -41 -26 -76 -59 -70 -68 11 -19 51 -8 80 22 37 40 83 69 109 69
13 0 5 -7 -22 -19z m-719 -271 c-5 -5 -36 -10 -69 -12 l-60 -3 0 -40 0 -40 53
-3 c37 -2 52 -7 52 -18 0 -10 -13 -14 -50 -14 -44 0 -50 -3 -56 -24 -13 -52
-4 -61 66 -66 49 -4 65 -9 65 -20 0 -19 -139 -27 -161 -9 -11 9 -14 40 -14
128 0 64 4 121 8 128 4 7 36 13 72 15 66 3 109 -7 94 -22z m521 20 c43 -16 25
-34 -32 -31 -42 2 -55 -2 -72 -20 -28 -30 -37 -96 -18 -141 19 -46 49 -62 98
-54 23 4 40 2 45 -5 10 -17 -16 -29 -64 -29 -87 0 -132 50 -132 145 0 51 25
109 42 99 6 -4 8 -3 5 3 -19 30 74 54 128 33z m255 -137 c27 -84 37 -130 31
-136 -15 -15 -37 8 -45 43 -5 29 -8 30 -59 30 -54 0 -54 0 -70 -40 -15 -38
-30 -50 -41 -32 -8 14 74 256 91 269 32 24 50 -3 93 -134z m505 133 c50 -21
68 -64 63 -149 -3 -63 -7 -72 -36 -98 -36 -32 -90 -39 -137 -17 -34 15 -65 76
-65 128 0 48 25 114 40 105 6 -4 9 -1 8 6 -4 15 39 39 70 39 12 0 38 -6 57
-14z m-1560 -12 c35 -23 59 -93 50 -149 -10 -69 -48 -106 -113 -113 -28 -2
-62 -2 -76 2 l-26 6 0 129 c0 70 3 131 7 134 13 14 133 7 158 -9z m387 -101
l3 -118 50 -5 c38 -4 51 -9 53 -23 3 -16 -4 -18 -70 -15 l-73 3 -3 124 c-3
135 -1 151 22 151 13 0 16 -21 18 -117z m938 97 c22 -22 27 -78 10 -110 -11
-21 -60 -40 -106 -40 -33 0 -33 0 -36 -52 -2 -39 -7 -53 -18 -53 -12 0 -15 23
-18 138 l-3 137 76 0 c62 0 79 -4 95 -20z m-234 -444 c16 -23 18 -64 4 -100
l-10 -26 -369 0 c-356 0 -371 1 -381 19 -15 29 -12 83 6 110 l17 23 359 -3
c342 -4 360 -5 374 -23z"/>
<path d="M2052 1442 c-34 -5 -53 -42 -53 -106 -1 -64 18 -102 55 -112 62 -15
101 35 94 122 -6 75 -37 105 -96 96z"/>
<path d="M447 1433 c-10 -9 -9 -201 1 -207 15 -9 96 13 109 30 7 10 13 43 13
75 0 74 -25 109 -79 109 -21 0 -41 -3 -44 -7z"/>
</g>
</svg>
